{
	"asset":{
		"generator":"Khronos glTF Blender I/O v4.5.47",
		"version":"2.0"
	},
	"scene":0,
	"scenes":[
		{
			"name":"Scene",
			"nodes":[
				0,
				1,
				2,
				3,
				4,
				5,
				6,
				7,
				8,
				9,
				10,
				11
			]
		}
	],
	"nodes":[
		{
			"mesh":0,
			"name":"\u982d",
			"scale":[
				0.2884082794189453,
				0.2884082794189453,
				0.2884082794189453
			],
			"translation":[
				-0.008603760972619057,
				0.9508218169212341,
				0.12484775483608246
			]
		},
		{
			"mesh":1,
			"name":"\u8eab\u9ad4",
			"scale":[
				0.2661937177181244,
				0.2661937177181244,
				0.2661937177181244
			],
			"translation":[
				0.0005320385098457336,
				0.4015321731567383,
				0.12484768778085709
			]
		},
		{
			"mesh":2,
			"name":"\u5de6\u8173",
			"scale":[
				-0.10792052745819092,
				-0.10792052745819092,
				-0.10792052745819092
			],
			"translation":[
				-0.11841867864131927,
				0.1069028228521347,
				0.1248476430773735
			]
		},
		{
			"mesh":3,
			"name":"\u53f3\u8173",
			"scale":[
				-0.10792052745819092,
				-0.10792052745819092,
				-0.10792052745819092
			],
			"translation":[
				0.1215813159942627,
				0.1069028228521347,
				0.1248476430773735
			]
		},
		{
			"mesh":4,
			"name":"\u7acb\u65b9\u9ad4.003",
			"scale":[
				0.06670313328504562,
				0.06670313328504562,
				0.06670313328504562
			],
			"translation":[
				0.31000298261642456,
				0.4038137197494507,
				0.12484768033027649
			]
		},
		{
			"mesh":5,
			"name":"\u7403\u9ad4.001",
			"scale":[
				0.2330000251531601,
				0.19300799071788788,
				0.2030082643032074
			],
			"translation":[
				0.4429610073566437,
				1.1001403331756592,
				0.12484777718782425
			]
		},
		{
			"mesh":6,
			"name":"\u7403\u9ad4.002",
			"scale":[
				0.20152103900909424,
				0.18152102828025818,
				0.26200002431869507
			],
			"translation":[
				0.29306837916374207,
				1.1272293329238892,
				0.12484777718782425
			]
		},
		{
			"mesh":7,
			"name":"\u7403\u9ad4.004",
			"scale":[
				0.3613256514072418,
				0.3613256514072418,
				0.3613256514072418
			],
			"translation":[
				-0.09881973266601562,
				1.1868252754211426,
				0.12484778463840485
			]
		},
		{
			"mesh":8,
			"name":"\u7403\u9ad4.005",
			"scale":[
				0.2925882935523987,
				0.22258831560611725,
				0.1725882887840271
			],
			"translation":[
				-0.4761256277561188,
				1.1055580377578735,
				0.12484777718782425
			]
		},
		{
			"mesh":9,
			"name":"\u7403\u9ad4",
			"rotation":[
				0,
				-1,
				0,
				4.371138828673793e-08
			],
			"scale":[
				-0.27864933013916016,
				-0.20864933729171753,
				-0.24864935874938965
			],
			"translation":[
				-0.010148346424102783,
				1.2222731113433838,
				0.1696237474679947
			]
		},
		{
			"mesh":10,
			"name":"\u7403\u9ad4.003",
			"scale":[
				0.2016228437423706,
				0.2016228437423706,
				0.2016228437423706
			],
			"translation":[
				0.22281742095947266,
				1.231572151184082,
				0.22962382435798645
			]
		},
		{
			"mesh":11,
			"name":"\u7403\u9ad4.006",
			"scale":[
				0.19980262219905853,
				0.16980260610580444,
				0.22980263829231262
			],
			"translation":[
				-0.30222487449645996,
				1.1375925540924072,
				0.3396237790584564
			]
		}
	],
	"animations":[
		{
			"channels":[
				{
					"sampler":0,
					"target":{
						"node":4,
						"path":"translation"
					}
				},
				{
					"sampler":1,
					"target":{
						"node":4,
						"path":"rotation"
					}
				}
			],
			"name":"\u7acb\u65b9\u9ad4.003Action",
			"samplers":[
				{
					"input":47,
					"interpolation":"LINEAR",
					"output":48
				},
				{
					"input":47,
					"interpolation":"LINEAR",
					"output":49
				}
			]
		}
	],
	"materials":[
		{
			"doubleSided":true,
			"name":"\u6750\u8cea.006",
			"pbrMetallicRoughness":{
				"baseColorFactor":[
					0.545803964138031,
					0.2705329954624176,
					0.8008519411087036,
					1
				],
				"metallicFactor":0,
				"roughnessFactor":0
			}
		},
		{
			"doubleSided":true,
			"name":"\u6750\u8cea.007",
			"pbrMetallicRoughness":{
				"baseColorFactor":[
					0.5362804532051086,
					0.00048081553541123867,
					0.8012669086456299,
					1
				],
				"metallicFactor":0,
				"roughnessFactor":0
			}
		},
		{
			"doubleSided":true,
			"name":"\u6750\u8cea.010",
			"pbrMetallicRoughness":{
				"baseColorFactor":[
					0.0017586549511179328,
					0,
					0.8002749681472778,
					1
				],
				"metallicFactor":0,
				"roughnessFactor":0
			}
		},
		{
			"doubleSided":true,
			"name":"\u6750\u8cea.009",
			"pbrMetallicRoughness":{
				"baseColorFactor":[
					0,
					0.09513776749372482,
					0.8002825975418091,
					1
				],
				"metallicFactor":0,
				"roughnessFactor":0
			}
		},
		{
			"doubleSided":true,
			"name":"\u6750\u8cea.008",
			"pbrMetallicRoughness":{
				"baseColorFactor":[
					0.8004578351974487,
					0.327614963054657,
					0.007707276381552219,
					1
				],
				"metallicFactor":0,
				"roughnessFactor":0
			}
		},
		{
			"doubleSided":true,
			"name":"\u6750\u8cea.001",
			"pbrMetallicRoughness":{
				"baseColorFactor":[
					0.05023747310042381,
					0.6031131744384766,
					0.09227252006530762,
					1
				],
				"metallicFactor":0,
				"roughnessFactor":0.6666666865348816
			}
		},
		{
			"doubleSided":true,
			"name":"\u6750\u8cea.002",
			"pbrMetallicRoughness":{
				"baseColorFactor":[
					0.05023747310042381,
					0.6031131744384766,
					0.09227252006530762,
					1
				],
				"metallicFactor":0,
				"roughnessFactor":0.6666666865348816
			}
		},
		{
			"doubleSided":true,
			"name":"\u6750\u8cea.003",
			"pbrMetallicRoughness":{
				"baseColorFactor":[
					0.05023747310042381,
					0.6031131744384766,
					0.09227252006530762,
					1
				],
				"metallicFactor":0,
				"roughnessFactor":0.6666666865348816
			}
		},
		{
			"doubleSided":true,
			"name":"\u6750\u8cea.004",
			"pbrMetallicRoughness":{
				"baseColorFactor":[
					0.05023747310042381,
					0.6031131744384766,
					0.09227252006530762,
					1
				],
				"metallicFactor":0,
				"roughnessFactor":0.6666666865348816
			}
		},
		{
			"doubleSided":true,
			"name":"\u6750\u8cea",
			"pbrMetallicRoughness":{
				"baseColorFactor":[
					0.05023747310042381,
					0.6031131744384766,
					0.09227252006530762,
					1
				],
				"metallicFactor":0,
				"roughnessFactor":0.6666666865348816
			}
		},
		{
			"doubleSided":true,
			"name":"https://meet.google.com/grd-enjn-bct",
			"pbrMetallicRoughness":{
				"baseColorFactor":[
					0.05023747310042381,
					0.6031131744384766,
					0.09227252006530762,
					1
				],
				"metallicFactor":0,
				"roughnessFactor":0.6666666865348816
			}
		},
		{
			"doubleSided":true,
			"name":"\u6750\u8cea.005",
			"pbrMetallicRoughness":{
				"baseColorFactor":[
					0.05023747310042381,
					0.6031131744384766,
					0.09227252006530762,
					1
				],
				"metallicFactor":0,
				"roughnessFactor":0.6666666865348816
			}
		}
	],
	"meshes":[
		{
			"name":"\u7acb\u65b9\u9ad4.003",
			"primitives":[
				{
					"attributes":{
						"POSITION":0,
						"NORMAL":1,
						"TEXCOORD_0":2
					},
					"indices":3,
					"material":0
				}
			]
		},
		{
			"name":"\u7acb\u65b9\u9ad4.004",
			"primitives":[
				{
					"attributes":{
						"POSITION":4,
						"NORMAL":5,
						"TEXCOORD_0":6
					},
					"indices":7,
					"material":1
				}
			]
		},
		{
			"name":"\u7acb\u65b9\u9ad4.006",
			"primitives":[
				{
					"attributes":{
						"POSITION":8,
						"NORMAL":9,
						"TEXCOORD_0":10
					},
					"indices":11,
					"material":2
				}
			]
		},
		{
			"name":"\u7acb\u65b9\u9ad4.007",
			"primitives":[
				{
					"attributes":{
						"POSITION":12,
						"NORMAL":13,
						"TEXCOORD_0":14
					},
					"indices":15,
					"material":3
				}
			]
		},
		{
			"name":"\u7acb\u65b9\u9ad4.009",
			"primitives":[
				{
					"attributes":{
						"POSITION":16,
						"NORMAL":17,
						"TEXCOORD_0":18
					},
					"indices":19,
					"material":4
				}
			]
		},
		{
			"name":"\u7403\u9ad4.001",
			"primitives":[
				{
					"attributes":{
						"POSITION":20,
						"NORMAL":21,
						"TEXCOORD_0":22
					},
					"indices":23,
					"material":5
				}
			]
		},
		{
			"name":"\u7403\u9ad4.002",
			"primitives":[
				{
					"attributes":{
						"POSITION":24,
						"NORMAL":25,
						"TEXCOORD_0":26
					},
					"indices":27,
					"material":6
				}
			]
		},
		{
			"name":"\u7403\u9ad4.004",
			"primitives":[
				{
					"attributes":{
						"POSITION":28,
						"NORMAL":29,
						"TEXCOORD_0":30
					},
					"indices":31,
					"material":7
				}
			]
		},
		{
			"name":"\u7403\u9ad4.005",
			"primitives":[
				{
					"attributes":{
						"POSITION":32,
						"NORMAL":33,
						"TEXCOORD_0":34
					},
					"indices":35,
					"material":8
				}
			]
		},
		{
			"name":"\u7403\u9ad4.006",
			"primitives":[
				{
					"attributes":{
						"POSITION":36,
						"NORMAL":37,
						"TEXCOORD_0":38
					},
					"indices":23,
					"material":9
				}
			]
		},
		{
			"name":"\u7403\u9ad4.007",
			"primitives":[
				{
					"attributes":{
						"POSITION":39,
						"NORMAL":40,
						"TEXCOORD_0":41
					},
					"indices":42,
					"material":10
				}
			]
		},
		{
			"name":"\u7403\u9ad4.008",
			"primitives":[
				{
					"attributes":{
						"POSITION":43,
						"NORMAL":44,
						"TEXCOORD_0":45
					},
					"indices":46,
					"material":11
				}
			]
		}
	],
	"accessors":[
		{
			"bufferView":0,
			"componentType":5126,
			"count":1618,
			"max":[
				1.3803231716156006,
				1.00294029712677,
				0.9532254338264465
			],
			"min":[
				0,
				-1,
				-1.8277498483657837
			],
			"type":"VEC3"
		},
		{
			"bufferView":1,
			"componentType":5126,
			"count":1618,
			"type":"VEC3"
		},
		{
			"bufferView":2,
			"componentType":5126,
			"count":1618,
			"type":"VEC2"
		},
		{
			"bufferView":3,
			"componentType":5123,
			"count":2928,
			"type":"SCALAR"
		},
		{
			"bufferView":4,
			"componentType":5126,
			"count":2680,
			"max":[
				1.2403805255889893,
				1.167414903640747,
				0.5531350374221802
			],
			"min":[
				0,
				-1,
				-1.390581727027893
			],
			"type":"VEC3"
		},
		{
			"bufferView":5,
			"componentType":5126,
			"count":2680,
			"type":"VEC3"
		},
		{
			"bufferView":6,
			"componentType":5126,
			"count":2680,
			"type":"VEC2"
		},
		{
			"bufferView":7,
			"componentType":5123,
			"count":4416,
			"type":"SCALAR"
		},
		{
			"bufferView":8,
			"componentType":5126,
			"count":523,
			"max":[
				1.1329790353775024,
				1.1801066398620605,
				3.114504337310791
			],
			"min":[
				-1.3307310342788696,
				-1.6511764526367188,
				-0.4745858907699585
			],
			"type":"VEC3"
		},
		{
			"bufferView":9,
			"componentType":5126,
			"count":523,
			"type":"VEC3"
		},
		{
			"bufferView":10,
			"componentType":5126,
			"count":523,
			"type":"VEC2"
		},
		{
			"bufferView":11,
			"componentType":5123,
			"count":960,
			"type":"SCALAR"
		},
		{
			"bufferView":12,
			"componentType":5126,
			"count":514,
			"max":[
				0.9991341233253479,
				1.1801066398620605,
				3.23565673828125
			],
			"min":[
				-1.386677622795105,
				-1.6511764526367188,
				-0.6298080682754517
			],
			"type":"VEC3"
		},
		{
			"bufferView":13,
			"componentType":5126,
			"count":514,
			"type":"VEC3"
		},
		{
			"bufferView":14,
			"componentType":5126,
			"count":514,
			"type":"VEC2"
		},
		{
			"bufferView":15,
			"componentType":5123,
			"count":960,
			"type":"SCALAR"
		},
		{
			"bufferView":16,
			"componentType":5126,
			"count":6604,
			"max":[
				1.1255910396575928,
				3.7379775047302246,
				-0.21726322174072266
			],
			"min":[
				-2.619649887084961,
				-3.709035873413086,
				-3.705029249191284
			],
			"type":"VEC3"
		},
		{
			"bufferView":17,
			"componentType":5126,
			"count":6604,
			"type":"VEC3"
		},
		{
			"bufferView":18,
			"componentType":5126,
			"count":6604,
			"type":"VEC2"
		},
		{
			"bufferView":19,
			"componentType":5123,
			"count":14592,
			"type":"SCALAR"
		},
		{
			"bufferView":20,
			"componentType":5126,
			"count":559,
			"max":[
				0.9071122407913208,
				1.0585519075393677,
				-0.32905256748199463
			],
			"min":[
				-1.0955008268356323,
				-0.8953320980072021,
				-2.5011022090911865
			],
			"type":"VEC3"
		},
		{
			"bufferView":21,
			"componentType":5126,
			"count":559,
			"type":"VEC3"
		},
		{
			"bufferView":22,
			"componentType":5126,
			"count":559,
			"type":"VEC2"
		},
		{
			"bufferView":23,
			"componentType":5123,
			"count":2880,
			"type":"SCALAR"
		},
		{
			"bufferView":24,
			"componentType":5126,
			"count":559,
			"max":[
				0.9999997019767761,
				1.1862027645111084,
				0.7527997493743896
			],
			"min":[
				-0.9999990463256836,
				-0.813797116279602,
				-1.247199535369873
			],
			"type":"VEC3"
		},
		{
			"bufferView":25,
			"componentType":5126,
			"count":559,
			"type":"VEC3"
		},
		{
			"bufferView":26,
			"componentType":5126,
			"count":559,
			"type":"VEC2"
		},
		{
			"bufferView":27,
			"componentType":5123,
			"count":2880,
			"type":"SCALAR"
		},
		{
			"bufferView":28,
			"componentType":5126,
			"count":559,
			"max":[
				0.9999997019767761,
				1,
				0.6284876465797424
			],
			"min":[
				-0.9999990463256836,
				-1,
				-1.371511697769165
			],
			"type":"VEC3"
		},
		{
			"bufferView":29,
			"componentType":5126,
			"count":559,
			"type":"VEC3"
		},
		{
			"bufferView":30,
			"componentType":5126,
			"count":559,
			"type":"VEC2"
		},
		{
			"bufferView":31,
			"componentType":5123,
			"count":2880,
			"type":"SCALAR"
		},
		{
			"bufferView":32,
			"componentType":5126,
			"count":559,
			"max":[
				1.3436241149902344,
				1.0236119031906128,
				0.9999993443489075
			],
			"min":[
				-0.6563747525215149,
				-0.7432100772857666,
				-1
			],
			"type":"VEC3"
		},
		{
			"bufferView":33,
			"componentType":5126,
			"count":559,
			"type":"VEC3"
		},
		{
			"bufferView":34,
			"componentType":5126,
			"count":559,
			"type":"VEC2"
		},
		{
			"bufferView":35,
			"componentType":5123,
			"count":2880,
			"type":"SCALAR"
		},
		{
			"bufferView":36,
			"componentType":5126,
			"count":559,
			"max":[
				0.9686532616615295,
				1.206826090812683,
				1.2107700109481812
			],
			"min":[
				-1.0313454866409302,
				-0.8086268901824951,
				-0.9772398471832275
			],
			"type":"VEC3"
		},
		{
			"bufferView":37,
			"componentType":5126,
			"count":559,
			"type":"VEC3"
		},
		{
			"bufferView":38,
			"componentType":5126,
			"count":559,
			"type":"VEC2"
		},
		{
			"bufferView":39,
			"componentType":5126,
			"count":559,
			"max":[
				0.9999997019767761,
				1,
				0.4071574807167053
			],
			"min":[
				-0.9999990463256836,
				-1,
				-1.5928419828414917
			],
			"type":"VEC3"
		},
		{
			"bufferView":40,
			"componentType":5126,
			"count":559,
			"type":"VEC3"
		},
		{
			"bufferView":41,
			"componentType":5126,
			"count":559,
			"type":"VEC2"
		},
		{
			"bufferView":42,
			"componentType":5123,
			"count":2880,
			"type":"SCALAR"
		},
		{
			"bufferView":43,
			"componentType":5126,
			"count":559,
			"max":[
				0.9005770683288574,
				1.3326177597045898,
				0.4035993814468384
			],
			"min":[
				-0.9936082363128662,
				-0.8696626424789429,
				-1.5963999032974243
			],
			"type":"VEC3"
		},
		{
			"bufferView":44,
			"componentType":5126,
			"count":559,
			"type":"VEC3"
		},
		{
			"bufferView":45,
			"componentType":5126,
			"count":559,
			"type":"VEC2"
		},
		{
			"bufferView":46,
			"componentType":5123,
			"count":2880,
			"type":"SCALAR"
		},
		{
			"bufferView":47,
			"componentType":5126,
			"count":119,
			"max":[
				4.958333333333333
			],
			"min":[
				0.041666666666666664
			],
			"type":"SCALAR"
		},
		{
			"bufferView":48,
			"componentType":5126,
			"count":119,
			"type":"VEC3"
		},
		{
			"bufferView":49,
			"componentType":5126,
			"count":119,
			"type":"VEC4"
		}
	],
	"bufferViews":[
		{
			"buffer":0,
			"byteLength":19416,
			"byteOffset":0,
			"target":34962
		},
		{
			"buffer":0,
			"byteLength":19416,
			"byteOffset":19416,
			"target":34962
		},
		{
			"buffer":0,
			"byteLength":12944,
			"byteOffset":38832,
			"target":34962
		},
		{
			"buffer":0,
			"byteLength":5856,
			"byteOffset":51776,
			"target":34963
		},
		{
			"buffer":0,
			"byteLength":32160,
			"byteOffset":57632,
			"target":34962
		},
		{
			"buffer":0,
			"byteLength":32160,
			"byteOffset":89792,
			"target":34962
		},
		{
			"buffer":0,
			"byteLength":21440,
			"byteOffset":121952,
			"target":34962
		},
		{
			"buffer":0,
			"byteLength":8832,
			"byteOffset":143392,
			"target":34963
		},
		{
			"buffer":0,
			"byteLength":6276,
			"byteOffset":152224,
			"target":34962
		},
		{
			"buffer":0,
			"byteLength":6276,
			"byteOffset":158500,
			"target":34962
		},
		{
			"buffer":0,
			"byteLength":4184,
			"byteOffset":164776,
			"target":34962
		},
		{
			"buffer":0,
			"byteLength":1920,
			"byteOffset":168960,
			"target":34963
		},
		{
			"buffer":0,
			"byteLength":6168,
			"byteOffset":170880,
			"target":34962
		},
		{
			"buffer":0,
			"byteLength":6168,
			"byteOffset":177048,
			"target":34962
		},
		{
			"buffer":0,
			"byteLength":4112,
			"byteOffset":183216,
			"target":34962
		},
		{
			"buffer":0,
			"byteLength":1920,
			"byteOffset":187328,
			"target":34963
		},
		{
			"buffer":0,
			"byteLength":79248,
			"byteOffset":189248,
			"target":34962
		},
		{
			"buffer":0,
			"byteLength":79248,
			"byteOffset":268496,
			"target":34962
		},
		{
			"buffer":0,
			"byteLength":52832,
			"byteOffset":347744,
			"target":34962
		},
		{
			"buffer":0,
			"byteLength":29184,
			"byteOffset":400576,
			"target":34963
		},
		{
			"buffer":0,
			"byteLength":6708,
			"byteOffset":429760,
			"target":34962
		},
		{
			"buffer":0,
			"byteLength":6708,
			"byteOffset":436468,
			"target":34962
		},
		{
			"buffer":0,
			"byteLength":4472,
			"byteOffset":443176,
			"target":34962
		},
		{
			"buffer":0,
			"byteLength":5760,
			"byteOffset":447648,
			"target":34963
		},
		{
			"buffer":0,
			"byteLength":6708,
			"byteOffset":453408,
			"target":34962
		},
		{
			"buffer":0,
			"byteLength":6708,
			"byteOffset":460116,
			"target":34962
		},
		{
			"buffer":0,
			"byteLength":4472,
			"byteOffset":466824,
			"target":34962
		},
		{
			"buffer":0,
			"byteLength":5760,
			"byteOffset":471296,
			"target":34963
		},
		{
			"buffer":0,
			"byteLength":6708,
			"byteOffset":477056,
			"target":34962
		},
		{
			"buffer":0,
			"byteLength":6708,
			"byteOffset":483764,
			"target":34962
		},
		{
			"buffer":0,
			"byteLength":4472,
			"byteOffset":490472,
			"target":34962
		},
		{
			"buffer":0,
			"byteLength":5760,
			"byteOffset":494944,
			"target":34963
		},
		{
			"buffer":0,
			"byteLength":6708,
			"byteOffset":500704,
			"target":34962
		},
		{
			"buffer":0,
			"byteLength":6708,
			"byteOffset":507412,
			"target":34962
		},
		{
			"buffer":0,
			"byteLength":4472,
			"byteOffset":514120,
			"target":34962
		},
		{
			"buffer":0,
			"byteLength":5760,
			"byteOffset":518592,
			"target":34963
		},
		{
			"buffer":0,
			"byteLength":6708,
			"byteOffset":524352,
			"target":34962
		},
		{
			"buffer":0,
			"byteLength":6708,
			"byteOffset":531060,
			"target":34962
		},
		{
			"buffer":0,
			"byteLength":4472,
			"byteOffset":537768,
			"target":34962
		},
		{
			"buffer":0,
			"byteLength":6708,
			"byteOffset":542240,
			"target":34962
		},
		{
			"buffer":0,
			"byteLength":6708,
			"byteOffset":548948,
			"target":34962
		},
		{
			"buffer":0,
			"byteLength":4472,
			"byteOffset":555656,
			"target":34962
		},
		{
			"buffer":0,
			"byteLength":5760,
			"byteOffset":560128,
			"target":34963
		},
		{
			"buffer":0,
			"byteLength":6708,
			"byteOffset":565888,
			"target":34962
		},
		{
			"buffer":0,
			"byteLength":6708,
			"byteOffset":572596,
			"target":34962
		},
		{
			"buffer":0,
			"byteLength":4472,
			"byteOffset":579304,
			"target":34962
		},
		{
			"buffer":0,
			"byteLength":5760,
			"byteOffset":583776,
			"target":34963
		},
		{
			"buffer":0,
			"byteLength":476,
			"byteOffset":589536
		},
		{
			"buffer":0,
			"byteLength":1428,
			"byteOffset":590012
		},
		{
			"buffer":0,
			"byteLength":1904,
			"byteOffset":591440
		}
	],
	"buffers":[
		{
			"byteLength":593344,
			"uri":"%E6%A6%95%E4%BB%94.bin"
		}
	]
}
